<?xml version="1.0" standalone="no"?>
<!DOCTYPE svg PUBLIC "-//W3C//DTD SVG 20010904//EN"
 "http://www.w3.org/TR/2001/REC-SVG-20010904/DTD/svg10.dtd">
<svg version="1.0" xmlns="http://www.w3.org/2000/svg"
 width="1024.000000pt" height="1536.000000pt" viewBox="0 0 1024.000000 1536.000000"
 preserveAspectRatio="xMidYMid meet">

<g transform="translate(0.000000,1536.000000) scale(0.100000,-0.100000)"
fill="#000000" stroke="none">
<path d="M4850 12805 c-389 -75 -685 -307 -877 -688 -122 -243 -180 -500 -190
-842 -12 -399 44 -708 177 -980 52 -107 124 -221 171 -270 16 -17 29 -34 29
-38 0 -4 -28 -7 -62 -7 -166 -1 -333 -81 -446 -213 -50 -58 -109 -173 -118
-229 -5 -26 -12 -38 -28 -42 -11 -3 -118 -25 -236 -50 -118 -25 -242 -54 -275
-63 -149 -44 -218 -201 -145 -332 49 -86 143 -112 330 -91 211 24 230 26 230
18 0 -5 -7 -11 -15 -14 -8 -3 -35 -35 -60 -70 -35 -49 -52 -64 -71 -64 -37 0
-215 -40 -244 -55 -32 -17 -63 -51 -85 -94 -26 -52 -18 -156 18 -209 39 -60
76 -76 170 -74 l77 1 0 -74 c0 -40 3 -80 6 -88 4 -12 -8 -18 -53 -27 -108 -23
-172 -120 -143 -219 11 -39 52 -86 92 -107 32 -16 105 -18 144 -4 15 6 29 9
31 6 10 -9 33 -187 33 -253 0 -141 -25 -210 -113 -311 -86 -99 -110 -168 -87
-252 17 -64 46 -99 103 -126 29 -13 45 -25 36 -27 -64 -19 -210 -77 -284 -114
-341 -170 -580 -381 -781 -688 -156 -240 -253 -492 -304 -788 -11 -66 -20
-122 -20 -127 0 -4 -36 -11 -80 -14 -103 -9 -290 -48 -360 -75 -218 -83 -287
-261 -182 -468 54 -106 216 -196 394 -218 l53 -7 57 -97 c337 -574 908 -1092
1481 -1346 78 -34 165 -70 193 -79 l51 -16 12 -68 c31 -166 150 -275 348 -320
72 -16 176 -17 1288 -17 1132 0 1216 1 1307 18 219 42 332 138 359 308 5 34
12 66 14 69 3 4 39 20 82 35 124 44 388 176 518 260 367 235 667 511 916 842
80 106 223 327 250 385 10 22 22 29 68 38 218 42 342 116 408 243 25 46 28 63
28 147 0 86 -3 100 -29 148 -27 49 -82 99 -142 130 -38 20 -196 62 -288 77
-49 8 -93 20 -98 27 -4 7 -8 40 -8 73 0 171 -76 459 -168 640 -206 408 -648
719 -1095 770 -57 6 -58 7 -84 58 -128 254 -340 469 -594 599 -180 93 -315
128 -679 179 -233 32 -323 60 -417 129 -46 34 -96 124 -108 192 l-6 37 83 43
c138 71 277 222 343 372 21 48 28 54 106 93 46 23 114 66 150 96 113 94 149
150 292 459 64 139 145 194 413 283 144 48 554 176 869 272 278 84 1055 324
1305 403 124 39 261 82 305 95 271 80 365 125 453 219 184 194 151 532 -67
697 -81 60 -150 88 -246 96 -130 11 -222 -15 -436 -122 -71 -36 -132 -65 -134
-65 -3 0 -5 10 -5 23 -1 48 -37 104 -87 134 -44 26 -58 28 -165 32 l-117 3 -3
782 -3 781 -22 42 c-29 53 -84 98 -139 112 -62 16 -459 14 -505 -3 -75 -27
-100 -57 -228 -283 -69 -120 -238 -414 -376 -653 -333 -577 -464 -805 -495
-865 -24 -48 -25 -58 -28 -250 l-3 -200 28 -55 c21 -42 39 -61 73 -80 l45 -25
455 -5 455 -5 -115 -52 c-120 -54 -282 -130 -755 -353 -525 -248 -532 -250
-670 -250 -88 1 -131 10 -308 64 -65 20 -129 36 -143 36 -31 0 -31 18 1 30 42
16 139 86 205 146 157 146 297 394 366 647 48 180 65 316 71 573 6 262 -1 353
-43 562 -116 573 -465 973 -944 1083 -114 27 -374 34 -480 14z m485 -195 c406
-108 699 -483 785 -1005 11 -66 20 -138 19 -160 -1 -22 -7 7 -15 65 -46 355
-163 628 -353 824 -131 135 -264 215 -439 264 -90 25 -110 27 -282 26 -158 0
-197 -4 -265 -22 -406 -112 -691 -472 -787 -994 -20 -109 -22 -156 -23 -418 0
-261 3 -309 22 -415 48 -262 178 -541 311 -669 l30 -28 69 18 c48 14 102 19
188 19 127 0 177 -11 277 -61 26 -13 62 -25 80 -25 31 -2 31 -2 5 -6 -17 -3
-59 9 -110 31 -145 62 -306 72 -444 28 l-63 -20 -57 62 c-165 178 -272 442
-313 771 -17 138 -14 510 5 640 47 323 154 574 333 782 114 132 300 248 467
291 115 30 123 31 310 27 134 -3 187 -8 250 -25z m-220 0 c3 -6 -5 -10 -19
-10 -14 0 -27 -4 -30 -9 -3 -4 7 -6 22 -3 21 3 24 2 15 -8 -6 -7 -57 -20 -112
-30 -248 -45 -434 -141 -606 -315 -203 -205 -334 -550 -361 -952 -7 -103 -23
-131 -25 -45 l-2 47 -8 -40 c-9 -45 -3 191 7 265 9 71 43 237 60 299 21 72 90
220 108 235 8 6 16 18 18 26 2 8 6 19 11 25 4 5 36 51 71 100 35 50 93 117
129 150 63 59 160 135 171 135 3 0 47 21 98 46 51 25 116 53 143 61 87 27 298
42 310 23z m3113 -78 c9 -12 12 -199 12 -854 l0 -838 178 0 c194 0 202 -2 202
-55 0 -31 -4 -34 -157 -107 -87 -42 -234 -111 -328 -153 -93 -43 -196 -90
-227 -106 l-58 -28 0 45 0 44 -524 0 c-473 0 -526 2 -541 16 -14 14 -16 39
-13 174 l3 156 91 160 c51 87 149 260 219 384 70 124 162 284 205 355 72 121
180 308 379 651 44 78 88 148 97 155 27 22 99 28 279 22 140 -4 172 -8 183
-21z m-2977 -322 c74 -29 182 -112 241 -185 89 -110 158 -277 196 -478 25
-133 24 -571 -1 -707 -40 -212 -116 -378 -227 -491 -110 -112 -280 -176 -435
-164 -240 18 -403 131 -518 361 -98 196 -134 529 -96 902 40 403 231 695 509
778 71 21 261 12 331 -16z m889 -1230 c-56 -561 -267 -932 -625 -1095 l-72
-33 -44 29 c-106 72 -238 126 -339 139 -51 7 -52 7 -14 9 77 2 237 -59 341
-130 51 -35 58 -35 129 -4 91 40 186 109 268 195 84 88 123 144 183 265 112
223 170 515 175 880 l2 170 4 -155 c2 -85 -2 -207 -8 -270z m3255 -155 c33 -9
78 -28 99 -43 38 -26 96 -95 96 -115 0 -5 -15 13 -32 39 -25 38 -49 57 -100
83 -61 31 -75 34 -150 33 -46 0 -101 -7 -123 -15 -77 -28 -284 -130 -280 -137
3 -4 -1 -7 -8 -6 -22 2 -147 -57 -140 -67 3 -6 1 -7 -5 -4 -15 10 -43 -3 -35
-16 4 -6 1 -7 -6 -2 -17 10 -322 -135 -314 -149 4 -6 8 -6 11 2 2 7 8 12 14
12 6 0 5 -6 -2 -15 -10 -12 -16 -13 -26 -4 -11 9 -48 -4 -165 -57 -83 -37
-146 -70 -140 -72 6 -2 11 -8 11 -14 0 -6 -6 -6 -14 2 -15 12 -122 -33 -466
-197 -63 -30 -132 -61 -152 -70 -33 -13 -36 -18 -33 -49 3 -34 -11 -47 -21
-19 -4 8 -10 12 -15 9 -5 -3 -9 -1 -9 5 0 5 9 13 21 16 11 4 18 9 15 12 -2 3
-112 -45 -243 -107 -369 -174 -565 -262 -570 -256 -3 3 10 11 28 19 19 8 68
31 109 50 41 19 104 48 140 65 36 16 119 56 185 87 66 31 145 68 175 82 30 14
145 67 255 118 110 51 313 145 450 208 499 229 604 277 805 372 331 156 433
203 460 208 53 9 118 6 175 -8z m-55 -45 c-8 -5 -19 -10 -25 -10 -5 0 -3 5 5
10 8 5 20 10 25 10 6 0 3 -5 -5 -10z m-41 -14 c-2 -2 -17 -6 -34 -10 -22 -5
-26 -4 -15 4 14 9 59 15 49 6z m-429 -200 c-201 -100 -410 -202 -465 -225 -55
-24 -140 -63 -190 -87 -49 -23 -178 -81 -285 -127 -191 -83 -355 -158 -555
-252 -55 -26 -120 -55 -145 -65 -25 -10 -72 -31 -105 -48 -85 -43 -185 -88
-244 -112 -28 -11 -78 -34 -112 -50 -63 -32 -130 -38 -135 -12 -1 7 0 8 3 2
10 -21 67 -9 159 35 51 25 98 45 104 45 5 0 10 5 10 12 0 6 3 9 6 6 7 -8 56
12 174 71 52 27 112 53 133 60 20 7 37 17 37 22 0 6 -7 6 -18 0 -21 -11 -48 2
-38 18 5 7 1 9 -8 5 -9 -3 -13 -10 -10 -15 3 -5 -2 -6 -11 -3 -19 8 -19 7 22
28 31 15 32 15 28 -4 -2 -11 0 -18 6 -15 5 4 9 14 9 24 0 10 12 23 26 29 14 7
23 8 20 4 -3 -5 5 -7 18 -5 15 3 25 -1 29 -11 4 -9 2 -16 -3 -16 -6 0 -10 3
-10 8 0 9 -58 8 -68 -2 -4 -4 -2 -7 3 -6 6 1 24 1 40 0 l30 -2 -30 -13 c-16
-8 -25 -14 -18 -15 19 0 83 32 83 42 0 5 5 6 12 2 7 -5 8 -3 3 6 -6 9 -1 10
16 5 19 -5 21 -4 9 4 -13 10 -13 11 0 12 8 1 18 1 22 0 14 -2 88 31 84 38 -2
3 6 7 17 7 19 2 95 35 419 181 41 19 55 30 51 42 -4 13 -3 13 5 2 8 -12 17
-11 56 5 25 10 46 23 46 27 0 5 4 6 8 3 4 -2 39 10 77 28 39 18 120 55 180 82
112 50 131 62 115 78 -4 4 -6 15 -3 22 3 8 -1 14 -8 14 -8 1 6 12 31 25 41 21
47 22 63 8 9 -9 17 -12 17 -6 0 6 20 9 45 8 24 -1 42 2 39 6 -2 4 1 11 7 15 8
4 9 3 5 -4 -9 -14 13 -15 34 -2 10 6 11 10 3 10 -7 0 -13 5 -13 11 0 8 4 8 14
0 16 -14 54 -2 81 26 10 9 23 18 29 18 25 1 136 60 136 73 0 7 5 10 10 7 14
-9 52 4 45 16 -3 5 0 6 7 4 8 -3 52 15 98 39 47 25 92 45 100 45 8 0 -149 -82
-350 -183z m111 107 c13 -16 12 -17 -3 -4 -10 7 -18 15 -18 17 0 8 8 3 21 -13z
m-78 -31 c4 8 6 7 6 -4 1 -23 -25 -23 -33 -2 -5 14 -4 15 8 5 11 -9 15 -9 19
1z m712 -107 c0 -47 -5 -88 -13 -100 -11 -18 -11 -17 -5 10 5 17 8 57 8 90 0
33 -3 74 -8 90 -6 27 -6 28 5 10 8 -12 13 -53 13 -100z m-810 75 c-3 -5 -1
-10 6 -10 7 0 10 -3 6 -6 -9 -9 -28 6 -22 17 4 5 8 9 11 9 3 0 2 -4 -1 -10z
m-28 -32 c-3 -8 -6 -5 -6 6 -1 11 2 17 5 13 3 -3 4 -12 1 -19z m-124 -48 c-10
-11 -18 -20 -19 -20 -2 0 2 28 5 38 1 1 8 2 16 2 12 0 12 -3 -2 -20z m922
-157 c-24 -39 -66 -83 -90 -95 -11 -6 -2 5 20 25 23 19 49 51 60 71 10 19 21
33 23 31 3 -2 -3 -17 -13 -32z m-115 -109 c0 -6 -65 -34 -77 -33 -4 0 10 9 32
19 48 22 45 21 45 14z m-100 -44 c-8 -5 -22 -9 -30 -9 -10 0 -8 3 5 9 27 12
43 12 25 0z m-1428 -62 c-7 -7 -12 -8 -12 -2 0 14 12 26 19 19 2 -3 -1 -11 -7
-17z m1273 12 c-11 -5 -27 -9 -35 -9 -9 0 -8 4 5 9 11 5 27 9 35 9 9 0 8 -4
-5 -9z m-119 -36 c-39 -13 -75 -24 -80 -23 -15 1 116 47 134 47 8 0 -16 -10
-54 -24z m-141 -44 c-27 -10 -57 -18 -65 -18 -8 0 8 8 35 18 28 10 57 18 65
18 8 0 -7 -8 -35 -18z m-130 -40 c-11 -5 -27 -9 -35 -9 -9 0 -8 4 5 9 11 5 27
9 35 9 9 0 8 -4 -5 -9z m-130 -40 c-11 -5 -27 -9 -35 -9 -9 0 -8 4 5 9 11 5
27 9 35 9 9 0 8 -4 -5 -9z m-1200 -28 c-3 -3 -11 0 -18 7 -9 10 -8 11 6 5 10
-3 15 -9 12 -12z m1055 -17 c-19 -7 -42 -13 -50 -13 -8 0 1 6 20 13 19 7 42
13 50 13 8 0 -1 -6 -20 -13z m-1169 -19 c-10 -12 -8 -13 11 -9 23 5 23 5 3
-10 -11 -8 -23 -13 -27 -11 -5 3 -8 1 -8 -4 0 -6 -10 -5 -25 1 l-25 12 37 17
c47 21 48 22 34 4z m-2648 -34 c213 -105 363 -381 421 -772 26 -173 36 -440
34 -865 -3 -381 -1 -426 15 -484 45 -158 136 -271 267 -333 102 -48 217 -74
465 -103 256 -31 506 -115 680 -230 84 -56 218 -186 287 -280 108 -146 205
-375 248 -585 50 -249 52 -563 5 -790 -27 -129 -80 -302 -113 -366 l-19 -36
-126 -2 c-70 0 -127 0 -127 2 0 1 21 44 46 95 109 216 152 389 161 638 9 272
-21 475 -102 684 -129 333 -389 560 -735 644 -47 11 -183 34 -302 51 -247 35
-342 57 -444 105 -198 91 -317 240 -369 462 -25 103 -35 363 -28 723 9 544
-26 799 -147 1045 -80 166 -177 262 -336 336 -46 22 -84 42 -84 45 0 3 24 16
53 30 74 35 159 31 250 -14z m3672 8 c-27 -10 -57 -18 -65 -18 -8 0 8 8 35 18
28 10 57 18 65 18 8 0 -7 -8 -35 -18z m-130 -40 c-11 -5 -27 -9 -35 -9 -9 0
-8 4 5 9 11 5 27 9 35 9 9 0 8 -4 -5 -9z m-70 -20 c-11 -5 -27 -9 -35 -9 -9 0
-8 4 5 9 11 5 27 9 35 9 9 0 8 -4 -5 -9z m-3018 -62 c178 -65 390 -294 473
-509 57 -148 71 -221 77 -395 6 -179 -5 -262 -57 -412 -56 -166 -193 -348
-300 -400 l-45 -22 -3 106 -3 105 51 56 c62 71 125 196 147 294 21 98 21 308
-1 408 -34 153 -92 261 -208 387 -43 46 -80 96 -84 111 -9 38 -88 196 -125
249 -16 23 -29 45 -29 48 0 8 43 -2 107 -26z m-1023 2 c77 -12 191 -67 239
-115 20 -21 37 -41 37 -45 0 -5 -33 -29 -73 -54 l-74 -46 -64 32 c-54 27 -78
33 -152 36 -87 4 -254 -17 -306 -39 -35 -14 -36 -5 -7 45 49 83 166 167 260
186 58 11 73 11 140 0z m2950 2 c3 -5 -1 -9 -9 -9 -8 0 -12 4 -9 9 3 4 7 8 9
8 2 0 6 -4 9 -8z m903 2 c-3 -3 -12 -4 -19 -1 -8 3 -5 6 6 6 11 1 17 -2 13 -5z
m-100 -30 c-3 -3 -12 -4 -19 -1 -8 3 -5 6 6 6 11 1 17 -2 13 -5z m-202 -64
c-11 -5 -27 -9 -35 -9 -9 0 -8 4 5 9 11 5 27 9 35 9 9 0 8 -4 -5 -9z m-841
-16 c5 -14 4 -15 -9 -4 -17 14 -19 20 -6 20 5 0 12 -7 15 -16z m-31 -11 c-7
-2 -19 -2 -25 0 -7 3 -2 5 12 5 14 0 19 -2 13 -5z m682 -33 c-11 -5 -27 -9
-35 -9 -9 0 -8 4 5 9 11 5 27 9 35 9 9 0 8 -4 -5 -9z m-118 -36 c-3 -3 -12 -4
-19 -1 -8 3 -5 6 6 6 11 1 17 -2 13 -5z m-130 -40 c-3 -3 -12 -4 -19 -1 -8 3
-5 6 6 6 11 1 17 -2 13 -5z m-2572 -122 c20 -39 35 -79 33 -88 -2 -10 -28 -25
-63 -38 -131 -47 -249 -154 -310 -281 -51 -106 -68 -183 -69 -315 -1 -168 33
-263 113 -317 40 -27 107 -31 150 -9 91 47 161 205 161 361 0 77 -28 212 -57
278 l-26 58 24 26 c13 14 39 32 57 39 93 40 153 -68 168 -300 13 -198 -31
-372 -129 -509 -51 -71 -86 -101 -167 -142 -78 -40 -182 -42 -255 -3 -105 55
-179 170 -211 326 -22 114 -15 324 15 437 57 217 196 399 388 512 50 29 125
54 135 44 3 -3 23 -39 43 -79z m2430 78 c-27 -12 -43 -12 -25 0 8 5 22 9 30 9
10 0 8 -3 -5 -9z m-75 -25 c-19 -7 -42 -13 -50 -13 -8 0 1 6 20 13 19 7 42 13
50 13 8 0 -1 -6 -20 -13z m-3093 -81 c-3 -3 -12 -4 -19 -1 -8 3 -5 6 6 6 11 1
17 -2 13 -5z m140 0 c-3 -3 -12 -4 -19 -1 -8 3 -5 6 6 6 11 1 17 -2 13 -5z
m-190 -10 c-3 -3 -12 -4 -19 -1 -8 3 -5 6 6 6 11 1 17 -2 13 -5z m263 -8 c0
-2 -7 -7 -16 -10 -8 -3 -12 -2 -9 4 6 10 25 14 25 6z m-343 -12 c-3 -3 -12 -4
-19 -1 -8 3 -5 6 6 6 11 1 17 -2 13 -5z m2870 0 c-3 -3 -12 -4 -19 -1 -8 3 -5
6 6 6 11 1 17 -2 13 -5z m-2593 -69 c-20 -30 -39 -55 -41 -55 -5 0 3 14 39 68
16 23 31 42 34 42 2 0 -12 -25 -32 -55z m-397 39 c-3 -3 -12 -4 -19 -1 -8 3
-5 6 6 6 11 1 17 -2 13 -5z m-210 -50 c-3 -3 -12 -4 -19 -1 -8 3 -5 6 6 6 11
1 17 -2 13 -5z m-40 -10 c-3 -3 -12 -4 -19 -1 -8 3 -5 6 6 6 11 1 17 -2 13 -5z
m-90 -20 c-3 -3 -12 -4 -19 -1 -8 3 -5 6 6 6 11 1 17 -2 13 -5z m601 -71 c-10
-2 -26 -2 -35 0 -10 3 -2 5 17 5 19 0 27 -2 18 -5z m-70 -10 c-10 -2 -26 -2
-35 0 -10 3 -2 5 17 5 19 0 27 -2 18 -5z m-875 -23 c-3 -12 -8 -19 -11 -16 -5
6 5 36 12 36 2 0 2 -9 -1 -20z m810 13 c-7 -2 -19 -2 -25 0 -7 3 -2 5 12 5 14
0 19 -2 13 -5z m2457 4 c0 -2 -10 -12 -22 -23 l-23 -19 19 23 c18 21 26 27 26
19z m-2527 -14 c-7 -2 -21 -2 -30 0 -10 3 -4 5 12 5 17 0 24 -2 18 -5z m-70
-10 c-7 -2 -21 -2 -30 0 -10 3 -4 5 12 5 17 0 24 -2 18 -5z m-75 -10 c-10 -2
-26 -2 -35 0 -10 3 -2 5 17 5 19 0 27 -2 18 -5z m-80 -10 c-10 -2 -28 -2 -40
0 -13 2 -5 4 17 4 22 1 32 -1 23 -4z m-95 -10 c-7 -2 -21 -2 -30 0 -10 3 -4 5
12 5 17 0 24 -2 18 -5z m-85 -10 c-10 -2 -28 -2 -40 0 -13 2 -5 4 17 4 22 1
32 -1 23 -4z m532 -161 c75 -46 109 -144 79 -230 -19 -55 -44 -51 -102 13 -49
56 -52 57 -95 52 -123 -14 -222 -202 -222 -421 0 -129 14 -232 56 -424 65
-296 58 -512 -22 -678 -72 -152 -220 -248 -284 -184 -33 33 -25 63 35 132 109
123 154 262 142 435 -3 45 -22 153 -41 240 -48 217 -55 260 -62 383 -22 351
107 622 334 707 51 18 127 8 182 -25z m2221 -95 c-10 -9 -11 -8 -5 6 3 10 9
15 12 12 3 -3 0 -11 -7 -18z m-1267 -1114 c51 -292 201 -497 453 -619 43 -21
80 -39 82 -41 2 -1 -2 -9 -9 -18 -18 -21 -63 -19 -176 10 -291 74 -475 250
-545 520 -22 88 -40 320 -30 399 6 48 8 50 62 78 30 16 73 46 95 69 l39 40 6
-173 c4 -95 14 -214 23 -265z m-744 162 c0 -433 98 -730 314 -952 36 -38 54
-63 45 -63 -9 0 -58 9 -110 19 -193 40 -330 55 -529 55 -107 1 -215 -3 -239
-7 l-44 -8 51 46 c62 56 142 173 171 248 41 111 54 219 48 397 -4 91 -13 194
-21 230 -23 96 -22 97 28 104 49 8 245 62 254 71 3 3 11 5 19 5 10 0 13 -31
13 -145z m323 95 l27 0 0 -107 c0 -416 135 -687 427 -857 39 -23 166 -71 330
-125 148 -49 320 -112 383 -140 285 -128 521 -295 639 -451 90 -119 99 -171
46 -252 -44 -66 -67 -55 -158 72 -150 211 -387 383 -693 503 -51 20 -177 61
-280 92 -289 86 -453 171 -585 305 -121 123 -199 262 -246 439 -23 86 -26 120
-31 322 l-4 227 58 -14 c33 -7 71 -14 87 -14z m-1205 13 c-10 -2 -26 -2 -35 0
-10 3 -2 5 17 5 19 0 27 -2 18 -5z m2917 -1087 c160 -41 254 -93 355 -195 139
-141 200 -292 200 -497 0 -242 -101 -453 -278 -581 -117 -84 -162 -97 -322
-97 -124 0 -141 2 -205 28 -73 29 -171 81 -180 96 -6 9 82 73 143 104 32 17
36 16 95 -4 96 -33 190 -37 259 -11 162 62 268 230 268 425 0 155 -53 278
-162 381 -72 68 -117 95 -245 146 -43 17 -127 54 -188 83 -60 29 -141 65 -179
81 -79 34 -77 37 49 60 113 21 264 13 390 -19z m-1989 -155 c241 -36 528 -112
738 -196 280 -111 473 -170 633 -194 40 -6 98 -22 130 -36 68 -30 73 -24 -103
-116 -109 -56 -121 -61 -164 -55 -66 9 -269 79 -530 184 -342 137 -534 189
-800 218 -530 58 -974 -89 -1325 -441 -245 -245 -398 -538 -470 -900 -14 -70
-25 -140 -25 -156 l0 -29 -101 0 -102 0 7 78 c29 333 132 630 311 897 285 426
728 702 1225 765 114 14 425 4 576 -19z m3254 -308 c189 -53 430 -200 566
-345 235 -252 355 -550 371 -920 l6 -148 -100 0 -100 0 -6 133 c-10 216 -50
374 -139 551 -134 267 -377 478 -626 542 l-70 18 -20 80 c-12 45 -24 91 -28
103 -6 21 -4 23 27 17 19 -4 72 -18 119 -31z m-3338 -40 c57 -7 54 -23 -5 -23
-23 0 -81 -9 -130 -20 -235 -52 -519 -184 -717 -333 -317 -239 -572 -585 -681
-924 l-23 -73 -48 0 -48 0 0 44 c0 133 71 386 148 529 179 331 469 593 808
728 195 77 447 103 696 72z m538 -208 c183 -28 374 -83 551 -159 l86 -37 -66
-62 c-101 -96 -109 -101 -123 -90 -28 22 -206 85 -320 113 -543 133 -1065 -15
-1464 -414 -115 -115 -238 -281 -306 -413 l-53 -102 -108 -3 c-59 -2 -107 0
-107 4 0 19 55 150 96 232 187 368 532 688 899 835 117 47 303 97 412 110 104
13 372 5 503 -14z m1348 -102 l63 -67 -28 -14 c-15 -8 -59 -28 -97 -44 -38
-15 -133 -70 -210 -121 -238 -158 -363 -265 -707 -604 l-226 -223 -168 0 c-93
0 -165 4 -159 8 5 5 45 37 89 73 127 102 248 211 425 384 358 350 619 554 819
641 111 49 124 47 199 -33z m1525 -70 c243 -155 382 -465 390 -865 1 -64 0
-118 -3 -121 -3 -3 -51 -7 -107 -9 l-103 -4 0 116 c0 279 -84 522 -237 690
l-60 65 -7 97 -7 97 33 -11 c18 -6 64 -31 101 -55z m-668 -361 c-37 -220 -149
-431 -305 -575 l-61 -57 -97 0 c-53 0 -121 -3 -149 -6 -29 -4 -53 -3 -52 2 0
5 32 34 71 64 107 82 256 275 273 350 4 16 23 45 43 62 62 57 102 101 147 163
50 69 122 210 133 257 15 70 13 -167 -3 -260z m-2275 128 c89 -11 248 -50 325
-79 l45 -17 -75 -73 c-49 -47 -80 -71 -90 -67 -72 27 -192 41 -360 40 -162 0
-190 -3 -280 -27 -176 -47 -331 -134 -458 -256 -71 -68 -161 -179 -194 -241
l-20 -35 -116 -3 -116 -3 21 53 c50 121 134 242 248 356 268 268 672 401 1070
352z m2890 -252 c17 -32 37 -86 45 -120 19 -77 30 -265 21 -338 l-7 -55 -99 0
-100 0 0 107 c0 77 8 149 30 260 16 84 32 179 35 211 l7 59 19 -34 c10 -18 32
-59 49 -90z m-1814 -72 c169 -74 341 -125 502 -147 45 -7 82 -16 82 -20 0 -14
-111 -97 -164 -124 -33 -16 -67 -25 -99 -25 -65 0 -223 33 -335 69 -97 32
-283 113 -279 122 4 10 179 169 187 169 4 0 52 -20 106 -44z m-1052 -59 l49
-12 -62 -57 c-81 -75 -127 -101 -243 -137 -115 -35 -172 -63 -257 -126 l-63
-47 -166 2 c-92 0 -168 3 -171 5 -8 9 173 180 234 222 112 75 221 122 345 148
80 16 268 17 334 2z m788 -293 c84 -41 156 -78 160 -82 4 -4 -110 -8 -253 -9
-142 -2 -259 1 -259 5 0 9 103 110 144 140 16 12 35 22 42 22 8 0 83 -34 166
-76z m-407 -259 c1689 0 3258 3 3488 8 l417 7 25 -24 c14 -14 25 -33 24 -43 0
-15 -2 -14 -9 4 -21 52 -26 53 -410 43 -525 -12 -7001 -10 -6993 3 4 7 -6 8
-28 4 -56 -11 -75 -46 -71 -127 l2 -25 -11 25 c-14 35 -2 88 26 116 l25 24
222 -7 c123 -5 1605 -8 3293 -8z m-3345 -94 c0 -9 -139 -4 -149 5 -2 2 30 4
72 4 43 0 77 -4 77 -9z m6573 2 c-7 -2 -19 -2 -25 0 -7 3 -2 5 12 5 14 0 19
-2 13 -5z m335 0 c-54 -2 -142 -2 -195 0 -54 1 -10 3 97 3 107 0 151 -2 98 -3z
m160 0 c-10 -2 -26 -2 -35 0 -10 3 -2 5 17 5 19 0 27 -2 18 -5z m-6025 -10
c-188 -2 -498 -2 -690 0 -191 1 -37 2 342 2 380 0 536 -1 348 -2z m394 1 c-3
-3 -12 -4 -19 -1 -8 3 -5 6 6 6 11 1 17 -2 13 -5z m91 -1 c-10 -2 -26 -2 -35
0 -10 3 -2 5 17 5 19 0 27 -2 18 -5z m150 0 c-10 -2 -26 -2 -35 0 -10 3 -2 5
17 5 19 0 27 -2 18 -5z m4644 0 c-51 -2 -132 -2 -180 0 -48 1 -6 3 93 3 99 0
138 -2 87 -3z m975 -25 c-3 -7 -5 -2 -5 12 0 14 2 19 5 13 2 -7 2 -19 0 -25z
m-2424 15 c-578 -2 -1528 -2 -2110 0 -582 1 -108 2 1052 2 1161 0 1637 -1
1058 -2z m-5043 -88 l35 -40 -37 34 c-21 19 -38 39 -38 45 0 5 1 7 3 5 1 -2
18 -22 37 -44z m7450 32 c0 -2 -15 -16 -32 -33 l-33 -29 29 33 c28 30 36 37
36 29z m-7307 -104 c-7 -2 -19 -2 -25 0 -7 3 -2 5 12 5 14 0 19 -2 13 -5z
m7134 1 c-3 -3 -12 -4 -19 -1 -8 3 -5 6 6 6 11 1 17 -2 13 -5z m-7074 -11 c-7
-2 -21 -2 -30 0 -10 3 -4 5 12 5 17 0 24 -2 18 -5z m7015 0 c-10 -2 -28 -2
-40 0 -13 2 -5 4 17 4 22 1 32 -1 23 -4z m-6790 -10 c-38 -2 -98 -2 -135 0
-38 2 -7 3 67 3 74 0 105 -1 68 -3z m6640 0 c-21 -2 -57 -2 -80 0 -24 2 -7 4
37 4 44 0 63 -2 43 -4z m-6250 -10 c-10 -2 -26 -2 -35 0 -10 3 -2 5 17 5 19 0
27 -2 18 -5z m575 0 c-100 -2 -266 -2 -370 0 -103 1 -21 2 182 2 204 0 288 -1
188 -2z m224 1 c-3 -3 -12 -4 -19 -1 -8 3 -5 6 6 6 11 1 17 -2 13 -5z m4726
-1 c-7 -2 -19 -2 -25 0 -7 3 -2 5 12 5 14 0 19 -2 13 -5z m315 0 c-49 -2 -127
-2 -175 0 -49 1 -9 3 87 3 96 0 136 -2 88 -3z m-1621 -10 c-522 -2 -1372 -2
-1890 0 -518 1 -91 2 948 2 1040 0 1463 -1 942 -2z m-4404 -170 c-29 -2 -78
-2 -110 0 -32 2 -8 3 52 3 61 0 87 -1 58 -3z m194 -9 c-3 -3 -12 -4 -19 -1 -8
3 -5 6 6 6 11 1 17 -2 13 -5z m436 -1 c-79 -2 -207 -2 -286 0 -78 1 -14 3 143
3 157 0 221 -2 143 -3z m197 -3 c0 -5 -2 -10 -4 -10 -3 0 -8 5 -11 10 -3 6 -1
10 4 10 6 0 11 -4 11 -10z m4873 3 c-7 -2 -19 -2 -25 0 -7 3 -2 5 12 5 14 0
19 -2 13 -5z m155 0 c-15 -2 -42 -2 -60 0 -18 2 -6 4 27 4 33 0 48 -2 33 -4z
m-4260 -10 c-115 -2 -301 -2 -415 0 -115 1 -21 2 207 2 228 0 322 -1 208 -2z
m3750 0 c-120 -2 -316 -2 -435 0 -120 1 -22 2 217 2 239 0 337 -1 218 -2z
m-3205 -10 c-7 -2 -19 -2 -25 0 -7 3 -2 5 12 5 14 0 19 -2 13 -5z m1575 0
c-284 -2 -752 -2 -1040 0 -288 1 -55 2 517 2 572 0 807 -1 523 -2z m-3438
-218 c16 -8 35 -23 42 -33 28 -40 186 -211 275 -299 108 -105 261 -231 372
-305 85 -57 117 -84 56 -47 -196 116 -387 284 -652 575 -61 67 -102 104 -125
111 -18 6 -25 11 -15 12 10 1 31 -6 47 -14z m-189 -112 c13 -16 12 -17 -3 -4
-10 7 -18 15 -18 17 0 8 8 3 21 -13z m40 -50 c13 -16 12 -17 -3 -4 -10 7 -18
15 -18 17 0 8 8 3 21 -13z m59 -68 c13 -14 21 -25 18 -25 -2 0 -15 11 -28 25
-13 14 -21 25 -18 25 2 0 15 -11 28 -25z m95 5 c10 -11 16 -20 13 -20 -3 0
-13 9 -23 20 -10 11 -16 20 -13 20 3 0 13 -9 23 -20z m141 -135 c64 -55 151
-138 119 -114 -38 29 -235 201 -235 206 0 5 34 -22 116 -92z m-105 -12 c13
-16 12 -17 -3 -4 -10 7 -18 15 -18 17 0 8 8 3 21 -13z m129 -118 c13 -14 21
-25 18 -25 -2 0 -15 11 -28 25 -13 14 -21 25 -18 25 2 0 15 -11 28 -25z m200
-62 c0 -7 -58 36 -66 49 -4 7 9 -1 29 -16 20 -16 37 -30 37 -33z m-135 7 c10
-11 16 -20 13 -20 -3 0 -13 9 -23 20 -10 11 -16 20 -13 20 3 0 13 -9 23 -20z
m280 -108 c49 -38 5 -12 -67 41 -38 27 -68 51 -68 53 0 5 81 -51 135 -94z
m-224 61 c13 -16 12 -17 -3 -4 -10 7 -18 15 -18 17 0 8 8 3 21 -13z m54 -43
c10 -11 16 -20 13 -20 -3 0 -13 9 -23 20 -10 11 -16 20 -13 20 3 0 13 -9 23
-20z m310 -107 l30 -26 -30 18 c-55 34 -105 68 -105 72 0 8 74 -38 105 -64z
m330 -69 c72 -36 119 -62 105 -58 -58 16 -300 145 -300 160 0 3 15 -4 33 -16
17 -12 91 -51 162 -86z m-484 59 c13 -16 12 -17 -3 -4 -17 13 -22 21 -14 21 2
0 10 -8 17 -17z m434 -145 c19 -18 -30 6 -137 65 -60 32 -108 61 -108 63 0 6
231 -115 245 -128z m240 1 c22 -10 29 -16 15 -13 -28 7 -80 33 -65 33 6 0 28
-9 50 -20z m-375 -45 c0 -2 -13 2 -30 11 -16 9 -30 18 -30 21 0 2 14 -2 30
-11 17 -9 30 -18 30 -21z m280 -13 c41 -17 71 -30 65 -30 -13 -1 -165 56 -174
65 -8 9 19 0 109 -35z m170 29 c8 -5 11 -10 5 -10 -5 0 -17 5 -25 10 -8 5 -10
10 -5 10 6 0 17 -5 25 -10z m-57 -67 c-7 -2 -19 -2 -25 0 -7 3 -2 5 12 5 14 0
19 -2 13 -5z m104 -149 c-3 -3 -12 -4 -19 -1 -8 3 -5 6 6 6 11 1 17 -2 13 -5z
m200 -50 c-3 -3 -12 -4 -19 -1 -8 3 -5 6 6 6 11 1 17 -2 13 -5z m50 -10 c-3
-3 -12 -4 -19 -1 -8 3 -5 6 6 6 11 1 17 -2 13 -5z m70 -10 c-3 -3 -12 -4 -19
-1 -8 3 -5 6 6 6 11 1 17 -2 13 -5z m101 -11 c-10 -2 -26 -2 -35 0 -10 3 -2 5
17 5 19 0 27 -2 18 -5z m145 -10 c-18 -2 -48 -2 -65 0 -18 2 -4 4 32 4 36 0
50 -2 33 -4z m395 -10 c-10 -2 -28 -2 -40 0 -13 2 -5 4 17 4 22 1 32 -1 23 -4z
m129 0 c-20 -2 -52 -2 -70 0 -17 2 0 4 38 4 39 0 53 -2 32 -4z m116 0 c-7 -2
-21 -2 -30 0 -10 3 -4 5 12 5 17 0 24 -2 18 -5z m185 0 c-32 -2 -84 -2 -115 0
-32 2 -6 3 57 3 63 0 89 -1 58 -3z m120 0 c-10 -2 -26 -2 -35 0 -10 3 -2 5 17
5 19 0 27 -2 18 -5z m-1231 -139 c-3 -3 -12 -4 -19 -1 -8 3 -5 6 6 6 11 1 17
-2 13 -5z m80 -10 c-3 -3 -12 -4 -19 -1 -8 3 -5 6 6 6 11 1 17 -2 13 -5z m116
-11 c-7 -2 -21 -2 -30 0 -10 3 -4 5 12 5 17 0 24 -2 18 -5z m270 -10 c-29 -2
-77 -2 -105 0 -29 2 -6 3 52 3 58 0 81 -1 53 -3z m185 0 c-16 -2 -40 -2 -55 0
-16 2 -3 4 27 4 30 0 43 -2 28 -4z m145 0 c-13 -2 -33 -2 -45 0 -13 2 -3 4 22
4 25 0 35 -2 23 -4z m874 1 c-3 -3 -12 -4 -19 -1 -8 3 -5 6 6 6 11 1 17 -2 13
-5z m-569 -111 c-10 -2 -26 -2 -35 0 -10 3 -2 5 17 5 19 0 27 -2 18 -5z"/>
<path d="M7794 12530 c-28 -11 -46 -37 -157 -231 -85 -148 -131 -227 -290
-499 -169 -289 -524 -913 -543 -955 -21 -45 -24 -64 -24 -191 0 -106 3 -144
13 -153 10 -7 171 -12 538 -13 l524 -3 3 -36 3 -37 137 62 c75 34 162 73 192
87 30 13 136 62 235 109 166 79 180 88 183 114 2 16 -2 33 -10 37 -7 5 -93 9
-190 9 l-178 0 0 836 c0 557 -3 842 -10 855 -9 17 -22 19 -106 19 -93 0 -99
-1 -188 -44 -94 -44 -151 -95 -186 -162 -33 -64 -183 -329 -252 -445 -41 -68
-84 -144 -97 -169 -13 -25 -30 -52 -36 -60 -16 -19 -158 -257 -198 -330 -60
-112 -80 -147 -129 -222 -28 -43 -55 -75 -61 -71 -6 4 -7 1 -3 -6 5 -7 1 -20
-7 -29 -8 -9 -21 -30 -30 -47 -8 -16 -24 -39 -34 -50 -10 -11 -29 -37 -42 -57
-27 -44 -31 -47 -29 -14 1 14 7 22 12 19 5 -4 7 1 3 11 -4 9 -3 14 2 11 5 -3
12 -1 16 5 3 5 1 10 -5 10 -6 0 0 19 13 43 14 23 53 92 88 152 34 61 70 124
79 140 26 49 74 130 80 135 3 3 11 18 18 33 7 17 17 25 24 21 7 -4 8 -3 4 4
-12 20 164 328 179 314 5 -4 5 -2 2 4 -4 7 0 15 9 18 8 3 14 11 13 18 -4 22
23 68 39 68 9 0 12 3 9 6 -3 4 3 18 13 32 11 13 20 33 20 43 0 11 7 19 16 19
11 0 13 6 9 19 -4 14 1 25 20 37 14 9 24 23 21 30 -2 6 11 36 29 66 19 29 47
78 63 108 16 30 41 74 55 97 15 24 27 47 27 52 0 5 15 31 33 58 17 27 38 61
46 75 17 34 31 40 106 48 l60 7 -55 1 c-30 0 -65 -3 -76 -8z m35 -592 c-67
-126 -616 -1047 -637 -1068 -19 -18 -9 -2 155 270 72 118 210 351 308 518 97
166 179 302 181 302 3 0 -1 -10 -7 -22z m26 -1095 c-3 -10 -78 -12 -337 -11
l-333 3 333 2 332 3 2 563 3 562 3 -555 c1 -305 0 -561 -3 -567z m-165 352 l0
-185 -109 0 -109 0 62 103 c33 56 81 139 106 184 25 46 46 83 48 83 1 0 2 -83
2 -185z"/>
<path d="M7958 12533 c7 -3 16 -2 19 1 4 3 -2 6 -13 5 -11 0 -14 -3 -6 -6z"/>
<path d="M6880 10925 c-7 -9 -8 -15 -2 -15 5 0 12 7 16 15 3 8 4 15 2 15 -2 0
-9 -7 -16 -15z"/>
<path d="M4920 12215 c-79 -22 -103 -35 -177 -92 -141 -107 -233 -261 -288
-481 -33 -134 -45 -259 -45 -474 1 -392 68 -622 237 -809 127 -141 376 -202
573 -141 171 53 271 143 361 321 89 178 123 385 116 711 -5 241 -18 332 -72
498 -78 242 -230 409 -424 466 -66 19 -216 20 -281 1z m283 -193 c106 -47 180
-137 238 -286 46 -119 67 -232 81 -421 26 -373 -50 -694 -198 -842 -120 -120
-286 -144 -449 -64 -71 35 -120 83 -170 166 -126 210 -161 626 -84 1000 45
220 169 405 304 453 80 29 207 26 278 -6z"/>
<path d="M8497 10463 c-3 -5 -1 -17 4 -28 4 -11 8 -15 8 -10 1 6 6 3 11 -5 7
-11 10 -11 10 -2 0 7 4 11 8 8 4 -2 14 -1 22 5 12 7 11 9 -4 9 -15 0 -17 3 -8
12 8 8 15 8 25 -1 8 -6 22 -9 31 -5 28 11 17 19 -29 21 -25 1 -45 -2 -45 -7 0
-6 -5 -10 -11 -10 -5 0 -7 5 -4 10 3 6 2 10 -4 10 -5 0 -12 -3 -14 -7z"/>
<path d="M2346 12725 c-59 -21 -107 -65 -152 -141 -72 -120 -551 -934 -706
-1199 -55 -93 -138 -234 -185 -313 -47 -79 -92 -160 -99 -180 -9 -25 -13 -93
-14 -208 0 -189 11 -250 56 -304 57 -67 40 -65 561 -68 l471 -3 4 -228 3 -228
27 -40 c15 -23 44 -54 64 -70 l37 -28 233 0 232 0 39 31 c21 16 48 50 61 74
21 42 22 56 22 267 l0 223 113 0 c61 0 129 4 150 9 58 14 105 51 132 105 24
48 25 58 25 226 0 186 -6 223 -46 277 -49 65 -84 77 -236 81 l-138 4 0 780 0
780 -25 47 c-31 55 -85 96 -146 110 -68 16 -436 13 -483 -4z m467 -184 c16
-12 17 -83 15 -855 l-3 -841 -5 845 -5 845 -125 2 c-69 1 -117 -1 -106 -6 15
-6 6 -12 -40 -27 -79 -27 -138 -66 -172 -112 -15 -21 -63 -103 -106 -183 -83
-150 -133 -237 -308 -529 -58 -96 -144 -242 -193 -325 -137 -235 -234 -375
-259 -375 -15 0 -17 3 -8 9 8 4 12 14 11 22 -3 13 22 63 85 174 13 23 35 63
51 90 15 28 38 59 50 71 28 25 57 79 48 88 -4 3 -1 6 5 6 7 0 12 7 12 15 0 9
15 39 33 68 18 29 50 82 70 120 21 37 40 67 43 67 3 0 3 -4 -1 -9 -3 -5 -1
-12 5 -16 9 -6 11 -1 14 38 1 6 8 18 16 25 8 8 9 11 3 7 -18 -9 -16 -2 8 39
22 37 31 45 25 24 -1 -7 -1 -10 1 -6 3 4 4 10 3 14 -1 3 7 13 18 22 24 21 50
68 32 57 -8 -5 -11 -3 -8 6 3 8 11 13 17 11 6 -1 11 2 11 8 0 5 14 33 31 62
28 48 36 66 38 91 1 5 5 5 11 2 6 -3 7 1 4 9 -4 11 0 16 11 16 9 0 14 4 11 8
-7 12 40 97 54 94 6 -1 9 2 6 7 -6 9 60 139 87 171 9 11 17 24 17 29 0 5 12
23 26 40 14 17 22 31 17 31 -4 1 3 10 16 20 25 21 16 28 -9 7 -19 -15 -47 -61
-185 -297 -60 -102 -152 -259 -205 -350 -54 -91 -137 -232 -185 -315 -49 -82
-149 -253 -224 -380 -74 -126 -151 -259 -169 -295 l-33 -65 3 -153 c2 -122 6
-155 18 -162 9 -6 224 -10 531 -10 418 0 519 -3 528 -13 7 -9 12 -109 13 -298
l3 -284 175 0 175 0 5 290 5 290 3 -286 c1 -211 -1 -288 -10 -297 -18 -18
-357 -17 -364 1 -2 7 -6 141 -7 298 l-2 284 -525 2 c-521 3 -525 3 -542 24
-15 18 -18 43 -18 170 0 175 -2 167 108 352 112 186 520 882 707 1202 86 149
167 281 180 294 33 34 76 40 271 38 128 -2 175 -5 187 -16z m-553 -878 c-356
-598 -485 -811 -489 -807 -2 2 79 142 181 311 101 169 249 417 329 550 79 133
146 240 147 238 2 -2 -73 -133 -168 -292z m197 -545 c-1 -150 -2 -30 -2 267 0
297 1 420 2 273 2 -147 2 -390 0 -540z m-446 759 c-10 -9 -11 -8 -5 6 3 10 9
15 12 12 3 -3 0 -11 -7 -18z m279 -677 l0 -190 -110 0 c-60 0 -110 2 -110 4 0
3 34 61 75 131 41 69 88 152 106 185 17 33 33 60 35 60 2 0 4 -85 4 -190z
m-810 -260 c-5 -9 -15 -22 -23 -28 -11 -9 -14 -8 -14 6 0 22 13 39 31 39 11 0
12 -5 6 -17z m-50 -67 c0 -5 -9 -19 -20 -33 -16 -20 -19 -21 -14 -5 11 31 34
58 34 38z m842 -40 c-95 -2 -248 -2 -340 0 -92 1 -14 3 173 3 187 0 262 -2
167 -3z m970 -10 c16 -14 18 -33 18 -157 0 -200 17 -187 -228 -184 l-197 3
195 2 c169 3 197 5 208 20 8 12 12 61 12 159 0 103 -3 145 -12 151 -7 4 -101
10 -208 13 l-195 6 194 2 c169 2 197 0 213 -15z"/>
<path d="M2458 12533 c7 -3 16 -2 19 1 4 3 -2 6 -13 5 -11 0 -14 -3 -6 -6z"/>
</g>
</svg>
