<?xml version="1.0" standalone="no"?>
<!DOCTYPE svg PUBLIC "-//W3C//DTD SVG 20010904//EN"
 "http://www.w3.org/TR/2001/REC-SVG-20010904/DTD/svg10.dtd">
<svg version="1.0" xmlns="http://www.w3.org/2000/svg"
 width="512.000000pt" height="512.000000pt" viewBox="0 0 512.000000 512.000000"
 preserveAspectRatio="xMidYMid meet">

<g transform="translate(0.000000,512.000000) scale(0.100000,-0.100000)"
fill="#000000" stroke="none">
<path d="M2540 4184 c-77 -10 -202 -35 -225 -46 -30 -14 -48 -60 -35 -93 17
-45 48 -50 162 -30 639 116 1241 -297 1362 -934 9 -46 16 -103 16 -127 0 -50
0 -50 -95 -31 l-59 13 -12 86 c-57 391 -356 721 -749 824 -86 23 -121 27 -245
27 -126 0 -158 -4 -245 -27 -277 -73 -518 -259 -641 -496 l-29 -55 -3 45 c-1
25 -10 82 -18 128 l-16 82 35 43 c63 76 151 159 232 218 138 100 135 97 135
134 0 38 -37 75 -76 75 -39 0 -204 -119 -308 -223 l-98 -98 -16 23 c-8 13 -51
59 -96 103 -96 96 -200 154 -327 185 -70 16 -118 20 -285 20 -269 0 -247 24
-242 -272 4 -219 4 -224 35 -311 43 -121 85 -188 181 -286 45 -46 79 -88 75
-91 -5 -4 -44 -31 -88 -61 -99 -68 -232 -200 -307 -305 -114 -159 -202 -374
-228 -549 -6 -44 -13 -95 -16 -112 l-5 -33 -67 0 c-83 0 -136 -23 -183 -79
-100 -116 -65 -289 72 -354 l52 -24 136 -269 c120 -238 141 -273 179 -301 23
-18 59 -37 80 -43 24 -6 316 -10 835 -10 l798 0 24 25 c32 31 33 74 2 103
l-23 22 -792 0 c-596 0 -798 3 -818 12 -20 10 -49 59 -135 230 -60 120 -109
220 -109 223 0 3 40 5 88 5 l88 0 11 -43 c16 -59 79 -121 145 -143 119 -39
234 14 289 136 l23 50 1878 0 c1033 0 1878 -2 1878 -5 0 -3 -49 -103 -109
-223 -86 -171 -115 -220 -135 -230 -21 -9 -269 -12 -1030 -12 l-1003 0 -21
-23 c-29 -31 -28 -72 3 -102 l24 -25 1008 0 c664 0 1021 4 1045 10 21 6 57 25
80 43 38 28 59 63 179 301 l136 269 52 24 c137 65 172 238 72 354 -52 62 -97
79 -213 79 l-96 0 -17 53 c-40 122 -133 288 -218 390 -22 26 -38 49 -36 51 2
2 47 26 99 53 81 41 99 55 124 96 83 135 10 313 -142 346 -58 12 -107 3 -197
-36 -125 -55 -241 -83 -341 -83 -47 0 -54 11 -54 92 0 26 -9 92 -19 146 -102
524 -509 936 -1031 1042 -97 20 -308 33 -380 24z m-1397 -319 c241 -51 426
-268 444 -521 l6 -81 -28 -5 c-25 -5 -52 16 -276 228 -225 212 -252 234 -283
234 -52 0 -89 -54 -70 -103 3 -8 96 -100 206 -203 152 -143 197 -190 182 -193
-10 -1 -59 -16 -108 -32 l-90 -28 -35 21 c-112 68 -202 180 -248 308 -23 66
-27 94 -31 233 l-4 157 133 0 c77 0 163 -6 202 -15z m1727 -166 c41 -10 122
-42 179 -70 81 -41 121 -69 187 -132 47 -44 89 -88 95 -99 9 -17 7 -17 -40 2
-27 10 -90 24 -138 31 -49 6 -104 20 -123 31 -134 74 -230 101 -370 102 -237
1 -456 -116 -582 -310 -28 -45 -46 -63 -56 -59 -8 3 -44 13 -79 22 l-63 16 26
46 c54 92 89 137 159 206 208 203 516 285 805 214z m-77 -302 l38 -12 -65 -43
c-121 -79 -218 -217 -247 -349 -7 -32 -14 -60 -15 -62 -2 -2 -23 12 -46 31
-63 50 -127 93 -207 136 l-72 39 45 61 c67 90 161 156 276 193 65 21 233 24
293 6z m-870 -330 c192 -51 381 -160 522 -301 61 -61 86 -95 104 -139 l24 -59
-44 -44 c-24 -24 -46 -44 -49 -44 -3 0 -14 14 -25 32 -29 50 -173 196 -241
244 -503 360 -1208 184 -1486 -371 -41 -82 -83 -209 -93 -280 -13 -103 -6 -96
-93 -93 l-77 3 3 45 c2 25 10 76 18 113 87 419 405 764 814 883 132 38 173 43
355 40 145 -3 185 -7 268 -29z m2646 -243 c47 -60 16 -107 -105 -158 -47 -20
-92 -36 -100 -36 -8 0 -50 26 -93 59 l-79 59 65 16 c36 8 100 31 142 50 97 43
142 46 170 10z m-2784 -45 c157 -29 341 -127 452 -241 112 -116 196 -272 229
-428 22 -105 25 -100 -64 -100 l-77 0 -18 78 c-58 258 -263 469 -514 528 -310
73 -647 -85 -787 -371 -49 -98 -65 -169 -76 -325 -5 -74 -18 -166 -29 -205
-24 -84 -63 -176 -83 -193 -51 -42 -128 -10 -128 54 0 19 6 47 14 62 36 71 57
162 67 294 12 173 36 266 99 395 108 220 334 395 575 446 84 18 258 21 340 6z
m1898 -4 c375 -65 686 -293 846 -620 76 -155 78 -145 -22 -145 l-84 0 -24 52
c-80 173 -221 328 -394 432 -74 44 -115 47 -144 10 -41 -52 -26 -87 61 -138
117 -68 238 -186 299 -291 16 -27 29 -53 29 -57 0 -5 -40 -8 -89 -8 l-88 0
-28 41 c-66 95 -198 190 -327 236 -97 34 -278 43 -383 19 -145 -34 -293 -127
-386 -243 l-43 -53 -88 0 c-48 0 -88 4 -88 8 0 16 102 158 148 205 159 165
382 257 624 257 113 0 120 1 143 25 30 29 32 64 6 96 -24 29 -91 37 -241 27
-174 -11 -356 -77 -505 -183 -72 -51 -209 -192 -250 -257 -32 -51 -45 -59 -45
-31 0 10 -12 53 -26 96 l-26 77 41 49 c169 202 421 349 678 395 104 19 300 19
406 1z m-1897 -316 c192 -59 333 -215 378 -422 l7 -28 -82 3 -81 3 -18 53
c-39 109 -134 201 -248 238 -38 12 -75 15 -135 12 -147 -8 -256 -79 -322 -211
-19 -38 -35 -76 -35 -83 0 -11 -19 -14 -80 -14 -94 0 -93 -2 -56 103 61 171
205 305 379 352 80 21 212 19 293 -6z m-83 -300 c56 -15 147 -105 147 -144 0
-3 -99 -5 -220 -5 -246 0 -241 -2 -191 67 55 76 164 110 264 82z m1921 -4 c82
-22 157 -59 207 -105 l44 -39 -385 0 -385 0 38 33 c51 46 143 93 213 110 79
19 197 19 268 1z m-3018 -335 c-3 -22 -13 -58 -22 -80 l-16 -40 -180 0 -180 0
-29 29 c-36 36 -37 73 -4 106 24 25 25 25 231 25 l207 0 -7 -40z m4339 15 c33
-33 32 -70 -4 -106 l-29 -29 -1927 0 -1927 0 6 48 c4 26 10 62 13 80 l5 32
1920 0 1919 0 24 -25z"/>
</g>
</svg>
